<?xml version="1.0" encoding="UTF-8"?>
<!DOCTYPE svg PUBLIC "-//W3C//DTD SVG 1.1//EN" "http://www.w3.org/Graphics/SVG/1.1/DTD/svg11.dtd">
<!-- Creator: CorelDRAW -->
<svg xmlns="http://www.w3.org/2000/svg" xml:space="preserve" width="122.013mm" height="22.5136mm" version="1.1" style="shape-rendering:geometricPrecision; text-rendering:geometricPrecision; image-rendering:optimizeQuality; fill-rule:evenodd; clip-rule:evenodd"
viewBox="0 0 12200.22 2251.17"
 xmlns:xlink="http://www.w3.org/1999/xlink"
 xmlns:xodm="http://www.corel.com/coreldraw/odm/2003">
 <defs>
  <style type="text/css">
   <![CDATA[
    .fil3 {fill:#2D5328;fill-rule:nonzero}
    .fil0 {fill:#113D23;fill-rule:nonzero}
    .fil2 {fill:url(#id0)}
    .fil1 {fill:url(#id1)}
   ]]>
  </style>
  <linearGradient id="id0" gradientUnits="userSpaceOnUse" x1="1156.85" y1="2251.17" x2="1153.48" y2="-0.01">
   <stop offset="0" style="stop-opacity:1; stop-color:#E31F25"/>
   <stop offset="1" style="stop-opacity:1; stop-color:#F39425"/>
  </linearGradient>
  <linearGradient id="id1" gradientUnits="userSpaceOnUse" x1="1755.84" y1="0" x2="1755.93" y2="1959.13">
   <stop offset="0" style="stop-opacity:1; stop-color:#8A74B2"/>
   <stop offset="1" style="stop-opacity:1; stop-color:#605294"/>
  </linearGradient>
 </defs>
 <g id="Layer_x0020_1">
  <metadata id="CorelCorpID_0Corel-Layer"/>
  <path class="fil0" d="M2832.79 1978.26l-75.8 0 0 172.01 -74.63 0 0 -408.14 74.63 0 0 170.84 78.13 0 117.19 -170.84 80.46 0 -139.35 197.65 144.6 210.49 -85.71 0 -119.52 -172.01zm612.21 -236.14l-177.24 329.43c-15.56,29.16 -34.12,51.02 -55.69,65.59 -21.58,14.57 -45,21.86 -70.26,21.86 -20.21,0 -40.23,-4.27 -60.05,-12.82l18.67 -59.47c15.94,5.05 29.14,7.58 39.65,7.58 24.49,0 44.7,-12.64 60.63,-37.9l6.42 -9.92 -162.69 -304.35 81.05 0 120.69 239.64 124.19 -239.64 74.63 0zm220.39 0c35.38,0 66.18,5.83 92.41,17.5 26.25,11.65 46.37,28.37 60.35,50.14 14,21.77 20.99,47.62 20.99,77.55 0,29.54 -6.99,55.29 -20.99,77.25 -13.99,21.96 -34.11,38.78 -60.35,50.44 -26.23,11.65 -57.04,17.48 -92.41,17.48l-92.11 0 0 117.79 -75.81 0 0 -408.14 167.93 0zm-3.5 226.22c33.04,0 58.11,-6.99 75.22,-20.99 17.1,-14 25.65,-34.01 25.65,-60.04 0,-26.05 -8.55,-46.07 -25.65,-60.06 -17.11,-14 -42.19,-20.99 -75.22,-20.99l-88.61 0 0 162.09 88.61 0zm443.71 187.75c-41.59,0 -79.09,-9.04 -112.53,-27.12 -33.42,-18.07 -59.66,-43.15 -78.7,-75.21 -19.05,-32.07 -28.57,-67.92 -28.57,-107.57 0,-39.66 9.52,-75.5 28.57,-107.57 19.04,-32.08 45.29,-57.15 78.7,-75.22 33.44,-18.07 70.94,-27.11 112.53,-27.11 41.6,0 79.11,9.04 112.53,27.11 33.44,18.08 59.67,43.05 78.72,74.92 19.05,31.88 28.57,67.83 28.57,107.87 0,40.03 -9.52,75.98 -28.57,107.86 -19.05,31.88 -45.29,56.86 -78.72,74.92 -33.42,18.08 -70.93,27.12 -112.53,27.12zm0 -66.47c27.22,0 51.71,-6.12 73.47,-18.36 21.77,-12.25 38.87,-29.35 51.31,-51.32 12.45,-21.97 18.66,-46.55 18.66,-73.75 0,-27.22 -6.21,-51.8 -18.66,-73.76 -12.44,-21.96 -29.54,-39.07 -51.31,-51.31 -21.77,-12.25 -46.26,-18.37 -73.47,-18.37 -27.2,0 -51.69,6.12 -73.45,18.37 -21.77,12.24 -38.88,29.35 -51.32,51.31 -12.44,21.97 -18.65,46.55 -18.65,73.76 0,27.21 6.21,51.79 18.65,73.75 12.44,21.97 29.55,39.07 51.32,51.32 21.77,12.24 46.26,18.36 73.45,18.36zm471.7 -347.5c35.38,0 66.18,5.83 92.41,17.5 26.24,11.65 46.36,28.37 60.35,50.14 13.99,21.77 20.99,47.62 20.99,77.55 0,29.54 -7,55.29 -20.99,77.25 -14,21.96 -34.12,38.78 -60.35,50.44 -26.23,11.65 -57.04,17.48 -92.41,17.48l-92.12 0 0 117.79 -75.8 0 0 -408.14 167.93 0zm-3.5 226.22c33.04,0 58.11,-6.99 75.21,-20.99 17.11,-14 25.66,-34.01 25.66,-60.04 0,-26.05 -8.55,-46.07 -25.66,-60.06 -17.1,-14 -42.18,-20.99 -75.21,-20.99l-88.62 0 0 162.09 88.62 0zm533.5 -162.09l-135.27 0 0 344.01 -75.22 0 0 -344.01 -134.68 0 0 -64.13 345.17 0 0 64.13zm495.02 131.77c26.04,7 45.87,18.95 59.47,35.87 13.6,16.91 20.4,38 20.4,63.25 0,35.77 -13.21,63.56 -39.65,83.38 -26.42,19.83 -64.71,29.74 -114.86,29.74l-193.57 0 0 -408.14 182.49 0c45.88,0 81.63,9.14 107.29,27.4 25.65,18.27 38.48,44.13 38.48,77.55 0,21.38 -5.14,39.84 -15.45,55.4 -10.3,15.54 -25.18,27.4 -44.61,35.56zm-193.57 -21.57l101.45 0c24.49,0 43.15,-4.87 55.98,-14.58 12.82,-9.72 19.24,-24.1 19.24,-43.15 0,-19.05 -6.42,-33.52 -19.24,-43.44 -12.83,-9.91 -31.49,-14.87 -55.98,-14.87l-101.45 0 0 116.03zm116.61 175.49c53.64,0 80.46,-20.21 80.46,-60.63 0,-39.65 -26.83,-59.47 -80.46,-59.47l-116.61 0 0 120.11 116.61 0zm681.01 -285.7l-202.33 0 0.59 344.01 -74.63 0 0 -408.14 276.96 0 -0.58 64.13zm370.24 280.46l0 63.55 -306.1 0 0 -408.14 297.94 0 0 63.54 -222.14 0 0 106.13 197.07 0 0 62.38 -197.07 0 0 112.53 230.3 0zm271.72 69.38c-41.6,0 -79.1,-9.04 -112.53,-27.12 -33.43,-18.07 -59.66,-43.15 -78.71,-75.21 -19.05,-32.07 -28.57,-67.92 -28.57,-107.57 0,-39.66 9.52,-75.5 28.57,-107.57 19.05,-32.08 45.29,-57.15 78.71,-75.22 33.43,-18.07 70.93,-27.11 112.53,-27.11 41.59,0 79.1,9.04 112.53,27.11 33.43,18.08 59.67,43.05 78.71,74.92 19.05,31.88 28.57,67.83 28.57,107.87 0,40.03 -9.52,75.98 -28.57,107.86 -19.04,31.88 -45.29,56.86 -78.71,74.92 -33.43,18.08 -70.94,27.12 -112.53,27.12zm0 -66.47c27.21,0 51.7,-6.12 73.46,-18.36 21.77,-12.25 38.87,-29.35 51.31,-51.32 12.45,-21.97 18.66,-46.55 18.66,-73.75 0,-27.22 -6.21,-51.8 -18.66,-73.76 -12.44,-21.96 -29.54,-39.07 -51.31,-51.31 -21.77,-12.25 -46.26,-18.37 -73.46,-18.37 -27.21,0 -51.7,6.12 -73.46,18.37 -21.77,12.24 -38.88,29.35 -51.32,51.31 -12.44,21.97 -18.65,46.55 -18.65,73.76 0,27.21 6.21,51.79 18.65,73.75 12.44,21.97 29.55,39.07 51.32,51.32 21.77,12.24 46.26,18.36 73.46,18.36zm665.27 -347.5l0 408.14 -74.63 0 0 -344.01 -211.65 0 0 344.01 -74.63 0 0 -408.14 360.92 0zm385.4 313.68l-204.07 0 -40.23 94.46 -78.12 0 183.65 -408.14 74.63 0 184.24 408.14 -79.29 0 -40.82 -94.46zm-25.07 -59.47l-76.96 -178.41 -76.38 178.41 153.35 0zm375.49 -254.21c35.38,0 66.17,5.83 92.41,17.5 26.24,11.65 46.36,28.37 60.34,50.14 14,21.77 20.99,47.62 20.99,77.55 0,29.54 -6.99,55.29 -20.99,77.25 -13.99,21.96 -34.11,38.78 -60.34,50.44 -26.24,11.65 -57.04,17.48 -92.41,17.48l-92.12 0 0 117.79 -75.8 0 0 -408.14 167.93 0zm-3.51 226.22c33.05,0 58.12,-6.99 75.22,-20.99 17.1,-14 25.65,-34.01 25.65,-60.04 0,-26.05 -8.55,-46.07 -25.65,-60.06 -17.1,-14 -42.18,-20.99 -75.22,-20.99l-88.61 0 0 162.09 88.61 0zm399.41 9.92l-75.8 0 0 172.01 -74.63 0 0 -408.14 74.63 0 0 170.84 78.13 0 117.19 -170.84 80.46 0 -139.35 197.65 144.6 210.49 -85.71 0 -119.52 -172.01zm563.22 108.45l0 63.55 -306.1 0 0 -408.14 297.95 0 0 63.54 -222.15 0 0 106.13 197.07 0 0 62.38 -197.07 0 0 112.53 230.3 0zm594.72 -350.42c40.04,0 76.09,9.04 108.16,27.11 32.07,18.08 57.24,43.05 75.5,74.92 18.28,31.88 27.41,67.83 27.41,107.87 0,40.03 -9.13,75.98 -27.41,107.86 -18.27,31.88 -43.44,56.86 -75.5,74.92 -32.07,18.08 -68.12,27.12 -108.16,27.12 -36.54,0 -69.86,-7.58 -99.99,-22.75 -30.12,-15.16 -54.81,-36.34 -74.05,-63.54 -19.24,-27.22 -31.19,-58.11 -35.85,-92.71l-64.14 0 0 173.18 -74.63 0 0 -408.14 74.63 0 0 167.34 65.3 0c5.44,-33.82 17.78,-63.84 37.03,-90.08 19.24,-26.24 43.73,-46.65 73.46,-61.21 29.74,-14.59 62.48,-21.87 98.24,-21.87zm0 353.33c25.27,0 48.21,-6.03 68.8,-18.07 20.61,-12.05 36.74,-28.97 48.4,-50.74 11.66,-21.76 17.5,-46.64 17.5,-74.62 0,-28 -5.84,-52.87 -17.5,-74.63 -11.66,-21.77 -27.79,-38.68 -48.4,-50.74 -20.6,-12.04 -43.54,-18.07 -68.8,-18.07 -25.27,0 -48.1,6.03 -68.5,18.07 -20.41,12.06 -36.55,28.97 -48.4,50.74 -11.86,21.77 -17.78,46.64 -17.78,74.63 0,27.99 5.92,52.87 17.78,74.62 11.85,21.77 27.99,38.69 48.4,50.74 20.41,12.04 43.24,18.07 68.5,18.07zm658.27 -347.5l0 408.14 -75.79 0 0 -174.92 -211.06 0 0 174.92 -75.81 0 0 -408.14 75.81 0 0 168.5 211.06 0 0 -168.5 75.79 0zm420.39 344.59l0 63.55 -306.11 0 0 -408.14 297.95 0 0 63.54 -222.15 0 0 106.13 197.07 0 0 62.38 -197.07 0 0 112.53 230.31 0zm270.55 69.38c-41.2,0 -78.42,-9.04 -111.66,-27.12 -33.24,-18.07 -59.27,-43.05 -78.12,-74.92 -18.86,-31.88 -28.29,-67.83 -28.29,-107.86 0,-40.04 9.52,-75.99 28.58,-107.87 19.05,-31.88 45.19,-56.85 78.41,-74.92 33.24,-18.07 70.45,-27.11 111.66,-27.11 33.43,0 63.93,5.83 91.54,17.49 27.6,11.66 50.93,28.58 69.97,50.73l-48.99 46.07c-29.54,-31.88 -65.88,-47.82 -109.04,-47.82 -27.98,0 -53.06,6.12 -75.2,18.37 -22.16,12.24 -39.46,29.26 -51.9,51.02 -12.44,21.77 -18.66,46.46 -18.66,74.05 0,27.59 6.22,52.28 18.66,74.04 12.44,21.77 29.74,38.78 51.9,51.03 22.15,12.24 47.23,18.36 75.2,18.36 43.16,0 79.5,-16.13 109.04,-48.39l48.99 46.64c-19.05,22.16 -42.48,39.07 -70.26,50.74 -27.8,11.66 -58.4,17.49 -91.83,17.49zm383.08 -177.83l-75.81 0 0 172.01 -74.62 0 0 -408.14 74.62 0 0 170.84 78.13 0 117.2 -170.84 80.46 0 -139.35 197.65 144.6 210.49 -85.71 0 -119.52 -172.01zm444.86 177.83c-41.59,0 -79.09,-9.04 -112.53,-27.12 -33.42,-18.07 -59.66,-43.15 -78.7,-75.21 -19.05,-32.07 -28.57,-67.92 -28.57,-107.57 0,-39.66 9.52,-75.5 28.57,-107.57 19.04,-32.08 45.29,-57.15 78.7,-75.22 33.44,-18.07 70.94,-27.11 112.53,-27.11 41.6,0 79.1,9.04 112.53,27.11 33.44,18.08 59.67,43.05 78.72,74.92 19.05,31.88 28.57,67.83 28.57,107.87 0,40.03 -9.52,75.98 -28.57,107.86 -19.05,31.88 -45.29,56.86 -78.72,74.92 -33.43,18.08 -70.93,27.12 -112.53,27.12zm0 -66.47c27.22,0 51.71,-6.12 73.47,-18.36 21.77,-12.25 38.87,-29.35 51.31,-51.32 12.45,-21.97 18.66,-46.55 18.66,-73.75 0,-27.22 -6.21,-51.8 -18.66,-73.76 -12.44,-21.96 -29.54,-39.07 -51.31,-51.31 -21.77,-12.25 -46.26,-18.37 -73.47,-18.37 -27.2,0 -51.69,6.12 -73.45,18.37 -21.77,12.24 -38.88,29.35 -51.32,51.31 -12.44,21.97 -18.65,46.55 -18.65,73.76 0,27.21 6.21,51.79 18.65,73.75 12.44,21.97 29.55,39.07 51.32,51.32 21.77,12.24 46.26,18.36 73.45,18.36z"/>
  <path class="fil1" d="M901.31 0.02c-452.2,0 -837.23,326.35 -837.23,791.19 0,359.99 237.2,646.62 427.81,932.04l347.91 527.91 461.02 0 -578.43 -877.69c-115.51,-175.28 -273.41,-362.66 -273.41,-582.26 0,-253.12 211.83,-406.29 452.32,-406.29l648.3 0c0,622.08 0,1244.16 0,1866.24l384.94 0 0 -2251.17c-392.42,0 -640.81,0.02 -1033.24,0.02z"/>
  <path class="fil2" d="M-0 2251.17l461.01 0c168.75,-256.07 337.49,-512.12 506.25,-768.17l506.26 768.17 461.04 0 -967.3 -1467.71c-322.42,489.24 -644.83,978.48 -967.26,1467.71z"/>
  <g id="_105553238657632">
   <rect class="fil3" x="8434.81" y="734.67" width="514.09" height="217.39"/>
   <path class="fil3" d="M11909.12 1234.63c76.16,-40.2 135.41,-99.43 177.72,-177.72 42.31,-78.27 63.46,-172.96 63.46,-284.03l0 -336.92 0 -64.08 0 -261.23 -257.05 0 0 261.23c0,30.78 0,61.55 0,92.33 0,75.02 -14.2,154.27 -68.24,210.19 -45.49,47.08 -107.37,70.6 -185.64,70.6 -79.34,0 -141.5,-23.53 -186.45,-70.6 -44.96,-47.08 -67.43,-116.63 -67.43,-208.66l0 -355.09 -253.88 0 0 325.31c0,111.07 21.16,205.75 63.46,284.04 42.32,78.28 101.56,137.53 177.72,177.72 76.16,40.19 165.56,60.29 268.16,60.29 88.87,0 167.82,-15.08 236.84,-45.23 -11.34,37.03 -28.92,67.88 -52.78,92.56 -44.35,45.89 -104.29,69.4 -179.8,70.55l-424.75 0 -5.28 -0.03 0 218.54c9.57,0.34 19.27,0.5 29.09,0.5l395.11 0c92.6,0.7 187.36,-16.81 269.75,-60.28z"/>
   <path class="fil3" d="M6475.58 91.61c102.61,0 192,20.11 268.17,60.29 76.16,40.2 135.4,99.44 177.72,177.72 42.31,78.28 63.46,172.97 63.46,284.04l0 607.73 -257.06 0 0 -269.34 -507.77 0 0 269.34 -253.88 0 0 -607.73c0,-111.07 21.16,-205.75 63.46,-284.04 42.32,-78.28 101.55,-137.53 177.72,-177.72 76.16,-40.19 165.56,-60.29 268.16,-60.29zm252.3 643.05l0 -144.81c0,-92.03 -22.74,-161.59 -68.23,-208.66 -45.49,-47.08 -107.37,-70.6 -185.64,-70.6 -79.34,0 -141.5,23.53 -186.45,70.6 -44.96,47.08 -67.43,116.63 -67.43,208.66l0 144.81 507.77 0z"/>
   <polygon class="fil3" points="5373.33,328.04 5374.91,1221.39 5119.44,1221.39 5119.44,110.65 5902.52,110.65 5902.52,328.04 "/>
   <polygon class="fil3" points="4911.37,110.65 4911.37,1221.39 4654.32,1221.39 4654.32,952.06 4149.72,952.06 4149.72,1221.39 3892.68,1221.39 3892.68,110.65 4149.72,110.65 4149.72,734.67 4654.32,734.67 4654.32,110.65 "/>
   <path class="fil3" d="M2790.62 220.64c73.46,-69.43 175.16,-110.13 284.89,-110.13l0 0.17 606.18 -0.03 0 1110.74c-83.05,0 -174,0 -257.05,0 0,-287.25 0,-567.27 0,-854.52l-340.5 0c-79.18,0 -145.46,39.58 -145.46,124.73 0,59.34 37.02,118.88 74.52,174.03l144.34 219.99 -221.17 335.77 -304.01 0 217.33 -330.77 -77.87 -118.15c-57.69,-87.5 -97.12,-175.54 -97.12,-280.87 0,-109.71 44.66,-203.62 115.93,-270.97z"/>
   <polygon class="fil3" points="8214.61,110.65 8214.61,1221.39 7957.57,1221.39 7957.57,952.06 7452.97,952.06 7452.97,1221.39 7195.92,1221.39 7195.92,110.65 7452.97,110.65 7452.97,734.67 7957.57,734.67 7957.57,110.65 "/>
   <path class="fil3" d="M9767.24 421.66c-95.2,-55.01 -197.28,-90.44 -306.24,-106.32l0 906.05 -257.05 0 0 -906.05c-108.96,15.88 -211.58,51.32 -307.83,106.32l-87.28 -192c76.16,-45.48 158.69,-79.86 247.54,-103.14 88.86,-23.27 180.37,-34.91 274.52,-34.91 95.2,0 187.49,11.64 276.89,34.91 89.39,23.28 171.64,57.67 246.75,103.14l-87.28 192z"/>
   <path class="fil3" d="M10456.99 91.61c102.6,0 191.99,20.11 268.16,60.29 76.17,40.2 135.41,99.44 177.72,177.72 42.31,78.28 63.46,172.97 63.46,284.04l0 607.73 -257.05 0 0 -269.34 -507.78 0 0 269.34 -253.88 0 0 -607.73c0,-111.07 21.16,-205.75 63.46,-284.04 42.33,-78.28 101.56,-137.53 177.72,-177.72 76.16,-40.19 165.56,-60.29 268.17,-60.29zm252.3 643.05l0 -144.81c0,-92.03 -22.75,-161.59 -68.24,-208.66 -45.48,-47.08 -107.37,-70.6 -185.64,-70.6 -79.34,0 -141.49,23.53 -186.45,70.6 -44.96,47.08 -67.43,116.63 -67.43,208.66l0 144.81 507.78 0z"/>
  </g>
 </g>
</svg>
